<svg width="8" height="13" viewBox="0 0 8 13" fill="none" xmlns="http://www.w3.org/2000/svg">
<path d="M0.960938 6.44364C0.960938 6.60898 1.02046 6.75449 1.14612 6.88014L6.39068 12.0057C6.50311 12.1247 6.64861 12.1842 6.82056 12.1842C7.16447 12.1842 7.42901 11.9263 7.42901 11.5824C7.42901 11.4104 7.35626 11.2649 7.25045 11.1525L2.43576 6.44364L7.25045 1.73478C7.35626 1.62235 7.42901 1.47024 7.42901 1.3049C7.42901 0.960993 7.16447 0.703064 6.82056 0.703064C6.64861 0.703064 6.50311 0.762586 6.39068 0.875017L1.14612 6.00715C1.02046 6.12619 0.960938 6.27831 0.960938 6.44364Z" fill="white"/>
</svg>
