<svg width="7" height="12" viewBox="0 0 7 12" fill="none" xmlns="http://www.w3.org/2000/svg">
<path d="M6.46875 5.74057C6.46875 5.57524 6.40923 5.42973 6.28357 5.30408L1.039 0.178523C0.926578 0.059534 0.781075 5.82791e-06 0.609126 5.81288e-06C0.265215 5.78282e-06 0.000675467 0.257895 0.000675437 0.601792C0.000675422 0.773808 0.0734234 0.919278 0.179241 1.0317L4.99393 5.74057L0.17924 10.4494C0.0734226 10.5619 0.000674553 10.714 0.000674539 10.8793C0.000674508 11.2232 0.265214 11.4812 0.609125 11.4812C0.781074 11.4812 0.926577 11.4216 1.039 11.3092L6.28357 6.17707C6.40923 6.05803 6.46875 5.90591 6.46875 5.74057Z" fill="white"/>
</svg>
